<?xml version="1.0" encoding="UTF-8"?>
<svg xmlns="http://www.w3.org/2000/svg" viewBox="0 0 36 36" version="1.1">
	<title>pause</title>
	<path stroke="none" fill="#FFFFFF" d="
	
	M10,7 L15,7 C15.5522847,7 16,7.44771525 16,8 L16,28 C16,28.5522847 15.5522847,29 15,29 L10,29 C9.44771525,29 9,28.5522847 9,28 L9,8 C9,7.44771525 9.44771525,7 10,7 Z
	
	M21,7 L26,7 C26.5522847,7 27,7.44771525 27,8 L27,28 C27,28.5522847 26.5522847,29 26,29 L21,29 C20.4477153,29 20,28.5522847 20,28 L20,8 C20,7.44771525 20.4477153,7 21,7 Z
	
	"/>
</svg>
