<?xml version="1.0" encoding="UTF-8"?>
<svg xmlns="http://www.w3.org/2000/svg" viewBox="0 0 36 36" version="1.1">
	<title>start</title>
	<path stroke="none" fill="#FFFFFF" d="
	
		M8.32,14 L16,6.88888889 L16,29.1111111 L8.32,22 L3,22 C2.44771525,22 2,21.5522847 2,21 L2,15 C2,14.4477153 2.44771525,14 3,14 L8.32,14 Z 
		
		M20.3786158,11.9150241 C19.9135374,11.6171643 19.7779799,10.9986806 20.0758398,10.5336021 C20.3736996,10.0685237 20.9921833,9.93296622 21.4572617,10.2308261 C22.0269284,10.5956695 22.5585741,11.023109 23.0443898,11.5089246 C26.7249231,15.1894579 26.7249231,21.1567815 23.0443898,24.8373148 C22.629129,25.2525755 22.1802968,25.6252726 21.7026778,25.9527476 C21.247177,26.2650574 20.6247434,26.1489782 20.3124336,25.6934773 C20.0001237,25.2379765 20.116203,24.615543 20.5717038,24.3032331 C20.947998,24.0452306 21.3019983,23.7512792 21.6301762,23.4231012 C24.529661,20.5236165 24.529661,15.8226229 21.6301762,12.9231382 C21.246336,12.5392979 20.8272284,12.2023383 20.3786158,11.9150241 Z
		
		M23.8752419,8.27557809 C23.4331788,7.9445213 23.3431903,7.31778373 23.6742471,6.87572057 C24.0053039,6.43365741 24.6320415,6.34366897 25.0741046,6.67472577 C25.6222596,7.08523371 26.1430291,7.53647026 26.6331508,8.02659198 C32.2426947,13.6361359 32.2426947,22.7310035 26.6331508,28.3405473 C26.2135556,28.7601426 25.7714602,29.1512763 25.3088846,29.5127878 C24.8737275,29.8528712 24.2452708,29.7757987 23.9051874,29.3406416 C23.565104,28.9054845 23.6421764,28.2770279 24.0773336,27.9369445 C24.4758276,27.6255139 24.8569183,27.2883527 25.2189372,26.9263338 C30.0474325,22.0978385 30.0474325,14.2693008 25.2189372,9.44080555 C24.7961219,9.01799026 24.3473255,8.62911686 23.8752419,8.27557809 Z
		
		M28.8282361,5.97903674 C28.374036,5.5248367 27.8983692,5.0984432 27.4029054,4.70075079 C26.9722043,4.35504131 26.9033051,3.72563621 27.2490145,3.29493515 C27.594724,2.86423409 28.2241291,2.79533481 28.6548302,3.14104428 C29.2069675,3.58422662 29.7368134,4.05918699 30.2424496,4.56482318 C36.9275525,11.2499261 37.7792525,21.7501652 32.3915667,29.3931775 L32.2813339,29.5241281 L28.8868524,32.9186096 C28.4963281,33.3091339 27.8631631,33.3091339 27.4726388,32.9186096 C27.0821145,32.5280853 27.0821145,31.8949204 27.4726388,31.5043961 L30.8055255,28.1715094 C35.5810825,21.3264046 34.8022893,11.95309 28.8282361,5.97903674 Z
		
		"/>
</svg>
